<?xml version="1.0"?>
<svg width="512" height="512" xmlns="http://www.w3.org/2000/svg" xmlns:svg="http://www.w3.org/2000/svg">
 <!--!Font Awesome Free 6.5.1 by @fontawesome - https://fontawesome.com License - https://fontawesome.com/license/free Copyright 2024 Fonticons, Inc.-->

 <g class="layer">
  <title>Layer 1</title>
  <rect fill="#ff0000" height="511" id="svg_4" transform="matrix(1 0 0 1 0 0)" width="513" x="0.5" y="0"/>
  <path d="m289,38.06c0,-17.74 -13.3,-32.06 -31,-32.06s-32,14.33 -32,32.06l0,224.45c0,17.74 14.3,32.06 32,32.06s32,-14.33 32,-32.06l-1,-224.45zm-143.5,88.78c13.6,-11.32 15.4,-31.56 4.1,-45.19s-31.5,-15.43 -45.1,-4.11c-52.8,44.09 -86.5,110.62 -86.5,184.97c0,132.77 107.5,240.48 240,240.48s240,-107.72 240,-240.48c0,-74.35 -33.8,-140.88 -86.6,-184.97c-13.6,-11.32 -33.8,-9.42 -45.1,4.11s-9.4,33.87 4.1,45.19c38.9,32.37 63.5,81.16 63.5,135.67c0,97.4 -78.8,176.35 -176,176.35s-176,-78.96 -176,-176.35c0,-54.51 24.7,-103.31 63.5,-135.67l0.1,0z" fill="#ffffff" id="svg_1"/>
 </g>
</svg>